<svg width="1260" height="810" viewBox="0 0 1260 810" fill="none" xmlns="http://www.w3.org/2000/svg">
<g filter="url(#filter0_d)">
<rect x="48" y="48" width="1160" height="710" rx="9" fill="white"/>
</g>
<rect x="473" y="77" width="310" height="30" rx="15" fill="#F5F5F5"/>
<path d="M555.128 89.84L557.768 98.016L559.208 98L561.256 91.936L563.224 98H564.664L567.384 89.84H566.056L563.928 96.48L561.896 89.84H560.68L558.536 96.48L556.504 89.84H555.128ZM567.659 89.84L570.299 98.016L571.739 98L573.787 91.936L575.755 98H577.195L579.915 89.84H578.587L576.459 96.48L574.427 89.84H573.211L571.067 96.48L569.035 89.84H567.659ZM580.191 89.84L582.831 98.016L584.271 98L586.319 91.936L588.286 98H589.727L592.447 89.84H591.119L588.991 96.48L586.959 89.84H585.743L583.599 96.48L581.567 89.84H580.191ZM592.689 97.2C592.689 97.744 593.073 98.096 593.601 98.096C594.129 98.096 594.513 97.744 594.513 97.2C594.513 96.656 594.129 96.304 593.601 96.304C593.073 96.304 592.689 96.656 592.689 97.2ZM594.753 89.84L597.393 98.016L598.833 98L600.881 91.936L602.849 98H604.289L607.009 89.84H605.681L603.553 96.48L601.521 89.84H600.305L598.161 96.48L596.129 89.84H594.753ZM612.037 89.744C610.661 89.744 609.829 90.416 609.349 91.184V86.8H608.037V98H609.349V93.92C609.349 92.08 610.293 90.944 611.813 90.944C613.221 90.944 614.037 91.84 614.037 93.536V98H615.349V93.456C615.349 90.752 613.861 89.744 612.037 89.744ZM620.781 98.096C623.165 98.096 624.829 96.4 624.829 93.92C624.829 91.44 623.165 89.744 620.781 89.744C618.397 89.744 616.733 91.44 616.733 93.92C616.733 96.4 618.397 98.096 620.781 98.096ZM620.781 96.928C619.165 96.928 618.077 95.664 618.077 93.92C618.077 92.176 619.165 90.912 620.781 90.912C622.397 90.912 623.485 92.176 623.485 93.92C623.485 95.664 622.397 96.928 620.781 96.928ZM626.334 86.8V98H627.646V86.8H626.334ZM629.155 93.92C629.155 96.416 630.755 98.096 633.203 98.096C635.091 98.096 636.435 96.896 636.755 95.264H635.427C635.155 96.32 634.259 96.928 633.107 96.928C631.587 96.928 630.579 95.872 630.531 94.288V94.176H636.867C636.883 93.984 636.899 93.792 636.899 93.616C636.835 91.2 635.267 89.744 633.027 89.744C630.723 89.744 629.155 91.408 629.155 93.92ZM630.611 93.088C630.739 91.76 631.843 90.896 633.043 90.896C634.403 90.896 635.411 91.68 635.539 93.088H630.611ZM638.077 95.312C638.109 97.104 639.549 98.096 641.629 98.096C643.421 98.096 644.861 97.152 644.861 95.632C644.861 93.824 643.373 93.44 641.549 93.216C640.397 93.072 639.549 92.992 639.549 92.096C639.549 91.344 640.301 90.848 641.405 90.848C642.509 90.848 643.293 91.488 643.389 92.32H644.701C644.573 90.624 643.245 89.744 641.405 89.728C639.613 89.712 638.253 90.704 638.253 92.192C638.253 93.888 639.709 94.224 641.485 94.448C642.685 94.592 643.565 94.704 643.565 95.728C643.565 96.48 642.765 96.976 641.629 96.976C640.301 96.976 639.437 96.272 639.389 95.312H638.077ZM653.581 96.8C653.245 96.8 653.037 96.608 653.037 96.208V92.688C653.037 90.784 651.837 89.744 649.757 89.744C647.789 89.744 646.493 90.688 646.301 92.288H647.613C647.773 91.456 648.541 90.912 649.693 90.912C650.973 90.912 651.725 91.552 651.725 92.608V93.168H649.325C647.181 93.168 646.045 94.08 646.045 95.712C646.045 97.2 647.261 98.096 649.053 98.096C650.461 98.096 651.277 97.472 651.789 96.736C651.805 97.536 652.173 98 653.261 98H653.981V96.8H653.581ZM651.725 94.672C651.725 96.032 650.781 96.976 649.149 96.976C648.061 96.976 647.373 96.432 647.373 95.632C647.373 94.704 648.029 94.272 649.197 94.272H651.725V94.672ZM654.99 86.8V98H656.302V86.8H654.99ZM657.811 93.92C657.811 96.416 659.411 98.096 661.859 98.096C663.747 98.096 665.091 96.896 665.411 95.264H664.083C663.811 96.32 662.915 96.928 661.763 96.928C660.243 96.928 659.235 95.872 659.187 94.288V94.176H665.523C665.539 93.984 665.555 93.792 665.555 93.616C665.491 91.2 663.923 89.744 661.683 89.744C659.379 89.744 657.811 91.408 657.811 93.92ZM659.267 93.088C659.395 91.76 660.499 90.896 661.699 90.896C663.059 90.896 664.067 91.68 664.195 93.088H659.267ZM666.361 97.2C666.361 97.744 666.745 98.096 667.273 98.096C667.801 98.096 668.185 97.744 668.185 97.2C668.185 96.656 667.801 96.304 667.273 96.304C666.745 96.304 666.361 96.656 666.361 97.2ZM676.567 95.184H675.255C675.015 96.256 674.167 96.928 672.967 96.928C671.399 96.928 670.343 95.68 670.343 93.904C670.343 92.128 671.399 90.912 672.967 90.912C674.135 90.912 674.983 91.584 675.239 92.624H676.567C676.247 90.864 674.967 89.744 673.015 89.744C670.615 89.744 668.999 91.408 668.999 93.904C668.999 96.4 670.583 98.096 672.967 98.096C674.919 98.096 676.231 96.976 676.567 95.184ZM681.672 98.096C684.056 98.096 685.72 96.4 685.72 93.92C685.72 91.44 684.056 89.744 681.672 89.744C679.288 89.744 677.624 91.44 677.624 93.92C677.624 96.4 679.288 98.096 681.672 98.096ZM681.672 96.928C680.056 96.928 678.968 95.664 678.968 93.92C678.968 92.176 680.056 90.912 681.672 90.912C683.288 90.912 684.376 92.176 684.376 93.92C684.376 95.664 683.288 96.928 681.672 96.928ZM696.328 89.744C694.872 89.744 693.992 90.416 693.496 91.296C693.032 90.256 692.056 89.744 690.92 89.744C689.656 89.744 688.968 90.368 688.536 90.96L688.36 89.84H687.224V98H688.536V93.696C688.536 92.064 689.352 90.944 690.696 90.944C691.944 90.944 692.664 91.776 692.664 93.376V98H693.976V93.632C693.976 91.968 694.808 90.944 696.168 90.944C697.4 90.944 698.104 91.776 698.104 93.376V98H699.416V93.296C699.416 90.72 698.024 89.744 696.328 89.744Z" fill="#CCCCCC"/>
<circle cx="76" cy="71" r="6" fill="#CCCCCC"/>
<circle cx="98" cy="71" r="6" fill="#CCCCCC"/>
<circle cx="120" cy="71" r="6" fill="#CCCCCC"/>
<rect x="211.5" y="650.767" width="237" height="44.9107" rx="8.08393" fill="#1D1D1D"/>
<path d="M273.495 667.473V678.791H277.618C280.302 678.791 281.725 677.578 281.725 675.67C281.725 674.005 280.674 673.245 279.235 672.97C280.545 672.631 281.256 671.725 281.256 670.4C281.256 668.573 279.914 667.473 277.505 667.473H273.495ZM274.902 668.751H277.57C279.041 668.751 279.849 669.43 279.849 670.561C279.849 671.709 279.025 672.388 277.57 672.388H274.902V668.751ZM274.902 673.649H277.618C279.3 673.649 280.286 674.345 280.286 675.622C280.286 676.786 279.364 677.514 277.618 677.514H274.902V673.649ZM289.147 670.545V674.668C289.147 676.527 288.241 677.675 286.738 677.675C285.363 677.675 284.587 676.77 284.587 675.056V670.545H283.261V675.137C283.261 677.869 284.7 678.888 286.511 678.888C287.869 678.888 288.662 678.306 289.147 677.691L289.324 678.791H290.472V670.545H289.147ZM291.989 676.075C292.021 677.885 293.476 678.888 295.578 678.888C297.389 678.888 298.844 677.934 298.844 676.398C298.844 674.571 297.34 674.183 295.497 673.957C294.333 673.811 293.476 673.73 293.476 672.825C293.476 672.065 294.236 671.564 295.352 671.564C296.467 671.564 297.259 672.21 297.356 673.051H298.682C298.553 671.337 297.211 670.448 295.352 670.432C293.541 670.416 292.166 671.418 292.166 672.922C292.166 674.636 293.638 674.975 295.432 675.202C296.645 675.347 297.534 675.46 297.534 676.495C297.534 677.255 296.726 677.756 295.578 677.756C294.236 677.756 293.363 677.045 293.314 676.075H291.989ZM301.011 667.36C300.526 667.36 300.154 667.716 300.154 668.217C300.154 668.718 300.526 669.074 301.011 669.074C301.496 669.074 301.868 668.718 301.868 668.217C301.868 667.716 301.496 667.36 301.011 667.36ZM300.348 670.545V678.791H301.674V670.545H300.348ZM307.532 670.448C306.141 670.448 305.301 671.03 304.816 671.661L304.638 670.545H303.49V678.791H304.816V674.668C304.816 672.809 305.753 671.661 307.305 671.661C308.744 671.661 309.537 672.566 309.537 674.28V678.791H310.862V674.199C310.862 671.467 309.391 670.448 307.532 670.448ZM312.262 674.668C312.262 677.19 313.878 678.888 316.352 678.888C318.26 678.888 319.618 677.675 319.941 676.026H318.599C318.325 677.093 317.419 677.708 316.255 677.708C314.719 677.708 313.701 676.64 313.652 675.04V674.927H320.055C320.071 674.733 320.087 674.539 320.087 674.361C320.022 671.919 318.438 670.448 316.174 670.448C313.846 670.448 312.262 672.13 312.262 674.668ZM313.733 673.827C313.862 672.485 314.978 671.612 316.19 671.612C317.565 671.612 318.583 672.404 318.713 673.827H313.733ZM321.277 676.075C321.309 677.885 322.765 678.888 324.866 678.888C326.677 678.888 328.132 677.934 328.132 676.398C328.132 674.571 326.629 674.183 324.786 673.957C323.621 673.811 322.765 673.73 322.765 672.825C322.765 672.065 323.524 671.564 324.64 671.564C325.756 671.564 326.548 672.21 326.645 673.051H327.971C327.841 671.337 326.499 670.448 324.64 670.432C322.829 670.416 321.455 671.418 321.455 672.922C321.455 674.636 322.926 674.975 324.721 675.202C325.933 675.347 326.823 675.46 326.823 676.495C326.823 677.255 326.014 677.756 324.866 677.756C323.524 677.756 322.651 677.045 322.603 676.075H321.277ZM329.187 676.075C329.22 677.885 330.675 678.888 332.777 678.888C334.587 678.888 336.043 677.934 336.043 676.398C336.043 674.571 334.539 674.183 332.696 673.957C331.532 673.811 330.675 673.73 330.675 672.825C330.675 672.065 331.435 671.564 332.55 671.564C333.666 671.564 334.458 672.21 334.555 673.051H335.881C335.751 671.337 334.41 670.448 332.55 670.432C330.739 670.416 329.365 671.418 329.365 672.922C329.365 674.636 330.836 674.975 332.631 675.202C333.844 675.347 334.733 675.46 334.733 676.495C334.733 677.255 333.925 677.756 332.777 677.756C331.435 677.756 330.562 677.045 330.513 676.075H329.187ZM349.134 675.945H347.809C347.566 677.028 346.709 677.708 345.497 677.708C343.912 677.708 342.845 676.446 342.845 674.652C342.845 672.857 343.912 671.628 345.497 671.628C346.677 671.628 347.534 672.307 347.792 673.358H349.134C348.811 671.58 347.518 670.448 345.545 670.448C343.12 670.448 341.487 672.13 341.487 674.652C341.487 677.174 343.088 678.888 345.497 678.888C347.469 678.888 348.795 677.756 349.134 675.945ZM354.709 670.448C353.319 670.448 352.478 671.127 351.993 671.903V667.473H350.667V678.791H351.993V674.668C351.993 672.809 352.947 671.661 354.483 671.661C355.905 671.661 356.73 672.566 356.73 674.28V678.791H358.056V674.199C358.056 671.467 356.552 670.448 354.709 670.448ZM359.455 674.668C359.455 677.19 361.072 678.888 363.545 678.888C365.453 678.888 366.811 677.675 367.134 676.026H365.793C365.518 677.093 364.612 677.708 363.448 677.708C361.912 677.708 360.894 676.64 360.845 675.04V674.927H367.248C367.264 674.733 367.28 674.539 367.28 674.361C367.215 671.919 365.631 670.448 363.367 670.448C361.039 670.448 359.455 672.13 359.455 674.668ZM360.926 673.827C361.055 672.485 362.171 671.612 363.384 671.612C364.758 671.612 365.776 672.404 365.906 673.827H360.926ZM376.149 675.945H374.823C374.581 677.028 373.724 677.708 372.511 677.708C370.927 677.708 369.86 676.446 369.86 674.652C369.86 672.857 370.927 671.628 372.511 671.628C373.692 671.628 374.549 672.307 374.807 673.358H376.149C375.826 671.58 374.532 670.448 372.56 670.448C370.135 670.448 368.502 672.13 368.502 674.652C368.502 677.174 370.102 678.888 372.511 678.888C374.484 678.888 375.81 677.756 376.149 675.945ZM377.682 667.473V678.791H379.008V676.608L380.657 674.878L383.405 678.791H385.006L381.611 673.924L384.78 670.545H383.195L379.008 674.975V667.473H377.682ZM389.36 678.888C391.769 678.888 393.451 677.174 393.451 674.668C393.451 672.162 391.769 670.448 389.36 670.448C386.951 670.448 385.27 672.162 385.27 674.668C385.27 677.174 386.951 678.888 389.36 678.888ZM389.36 677.708C387.727 677.708 386.628 676.43 386.628 674.668C386.628 672.906 387.727 671.628 389.36 671.628C390.993 671.628 392.092 672.906 392.092 674.668C392.092 676.43 390.993 677.708 389.36 677.708ZM400.743 670.545V674.668C400.743 676.527 399.837 677.675 398.334 677.675C396.96 677.675 396.183 676.77 396.183 675.056V670.545H394.858V675.137C394.858 677.869 396.297 678.888 398.107 678.888C399.466 678.888 400.258 678.306 400.743 677.691L400.921 678.791H402.069V670.545H400.743ZM404.457 676.64C404.457 678.096 405.023 678.791 406.607 678.791H408.127V677.578H406.688C406.025 677.578 405.783 677.319 405.783 676.624V671.758H407.869V670.545H405.783V668.233H404.457V670.545H402.97V671.758H404.457V676.64Z" fill="white"/>
<path d="M254.274 683.767L260.5 661.767H257.726L251.5 683.767H254.274Z" fill="#C9FF00"/>
<path d="M156 165.4L160.626 173.32V178H163.326V173.32L167.952 165.4H164.946L161.976 170.566L159.15 165.4H156ZM171.912 178.108C174.864 178.108 176.79 176.236 176.79 173.374C176.79 170.53 174.864 168.64 171.912 168.64C168.96 168.64 167.034 170.53 167.034 173.374C167.034 176.218 168.96 178.108 171.912 178.108ZM171.912 176.038C170.49 176.038 169.626 174.94 169.626 173.374C169.626 171.808 170.49 170.71 171.912 170.71C173.334 170.71 174.216 171.808 174.216 173.374C174.216 174.94 173.334 176.038 171.912 176.038ZM184.361 168.748V173.302C184.361 175.012 183.623 176.002 182.363 176.002C181.103 176.002 180.563 175.102 180.563 173.464V168.748H178.025V173.77C178.025 177.136 179.789 178.108 181.697 178.108C183.011 178.108 183.821 177.604 184.415 176.884L184.649 178H186.899V168.748H184.361ZM193.865 168.748C192.425 168.748 191.705 169.306 191.201 170.134L190.967 168.748H188.663V178H191.201V173.464C191.201 172.06 191.777 171.052 193.289 171.052H194.297V168.748H193.865ZM200.094 165.4V178H205.116C208.212 178 209.94 176.632 209.94 174.454C209.94 172.654 208.788 171.772 207.006 171.538C208.554 171.25 209.49 170.296 209.49 168.712C209.49 166.606 207.798 165.4 204.882 165.4H200.094ZM202.794 167.524H204.954C206.124 167.524 206.79 168.118 206.79 169.054C206.79 169.99 206.106 170.584 204.954 170.584H202.794V167.524ZM202.794 172.672H205.134C206.412 172.672 207.168 173.266 207.168 174.292C207.168 175.264 206.43 175.858 205.134 175.858H202.794V172.672ZM211.208 176.002V178H220.442V175.822H214.952L217.778 173.518C219.362 172.24 220.388 171.106 220.388 169.252C220.388 166.894 218.768 165.274 215.744 165.274C212.954 165.274 211.154 167.11 211.154 169.504V169.846H213.764V169.648C213.764 168.298 214.592 167.452 215.744 167.452C216.95 167.452 217.76 168.118 217.76 169.36C217.76 170.386 217.076 171.142 215.978 172.042L211.208 176.002ZM222.101 165.4V178H227.123C230.219 178 231.947 176.632 231.947 174.454C231.947 172.654 230.795 171.772 229.013 171.538C230.561 171.25 231.497 170.296 231.497 168.712C231.497 166.606 229.805 165.4 226.889 165.4H222.101ZM224.801 167.524H226.961C228.131 167.524 228.797 168.118 228.797 169.054C228.797 169.99 228.113 170.584 226.961 170.584H224.801V167.524ZM224.801 172.672H227.141C228.419 172.672 229.175 173.266 229.175 174.292C229.175 175.264 228.437 175.858 227.141 175.858H224.801V172.672ZM237.699 173.86C237.735 176.308 239.859 178.108 242.919 178.108C245.745 178.108 247.815 176.434 247.833 174.13C247.851 171.592 245.943 170.944 243.783 170.548C241.695 170.152 240.705 169.936 240.705 168.91C240.705 167.938 241.533 167.452 242.685 167.452C243.999 167.452 244.827 168.19 244.935 169.252H247.581C247.527 166.966 245.493 165.292 242.685 165.292C239.949 165.292 237.987 166.894 237.987 169.108C237.987 171.664 239.859 172.348 241.983 172.744C244.089 173.158 245.115 173.374 245.115 174.436C245.115 175.426 244.197 175.966 242.955 175.966C241.407 175.966 240.435 175.12 240.345 173.896L237.699 173.86ZM249.849 175.354C249.849 177.118 250.731 178 252.495 178H254.601V175.858H253.287C252.639 175.858 252.387 175.588 252.387 174.94V170.89H254.493V168.748H252.387V166.156H249.849V168.748H248.319V170.89H249.849V175.354ZM260.048 178.108C263 178.108 264.926 176.236 264.926 173.374C264.926 170.53 263 168.64 260.048 168.64C257.096 168.64 255.17 170.53 255.17 173.374C255.17 176.218 257.096 178.108 260.048 178.108ZM260.048 176.038C258.626 176.038 257.762 174.94 257.762 173.374C257.762 171.808 258.626 170.71 260.048 170.71C261.47 170.71 262.352 171.808 262.352 173.374C262.352 174.94 261.47 176.038 260.048 176.038ZM271.525 168.748C270.085 168.748 269.365 169.306 268.861 170.134L268.627 168.748H266.323V178H268.861V173.464C268.861 172.06 269.437 171.052 270.949 171.052H271.957V168.748H271.525ZM272.432 173.392C272.432 176.254 274.304 178.108 277.436 178.108C279.866 178.108 281.432 176.668 281.72 174.868H279.218C279.002 175.732 278.282 176.182 277.256 176.182C275.942 176.182 275.186 175.354 275.078 174.022V173.95H281.792C281.846 173.662 281.864 173.356 281.864 173.086C281.828 170.368 279.902 168.64 277.094 168.64C274.304 168.64 272.432 170.494 272.432 173.392ZM275.132 172.294C275.276 171.196 276.104 170.53 277.202 170.53C278.354 170.53 279.146 171.16 279.326 172.294H275.132Z" fill="#1D1D1D"/>
<rect x="124" y="160" width="23" height="23" rx="11.5" fill="#CCCCCC"/>
<rect x="124" y="394.6" width="412" height="52" rx="6.9" fill="#F5F4F4"/>
<path d="M144.84 425.6H148.242C151.238 425.6 153.184 423.57 153.184 420.7C153.184 417.83 151.238 415.8 148.242 415.8H144.84V425.6ZM146.94 423.85V417.55H148.242C150.062 417.55 151.042 418.838 151.042 420.7C151.042 422.562 150.062 423.85 148.242 423.85H146.94ZM154.045 422.016C154.045 424.242 155.501 425.684 157.937 425.684C159.827 425.684 161.045 424.564 161.269 423.164H159.323C159.155 423.836 158.595 424.186 157.797 424.186C156.775 424.186 156.187 423.542 156.103 422.506V422.45H161.325C161.367 422.226 161.381 421.988 161.381 421.778C161.353 419.664 159.855 418.32 157.671 418.32C155.501 418.32 154.045 419.762 154.045 422.016ZM156.145 421.162C156.257 420.308 156.901 419.79 157.755 419.79C158.651 419.79 159.267 420.28 159.407 421.162H156.145ZM162.139 423.206C162.209 424.746 163.581 425.684 165.569 425.684C167.501 425.684 168.831 424.774 168.831 423.346C168.831 421.722 167.459 421.344 165.821 421.162C164.799 421.05 164.183 421.008 164.183 420.476C164.183 420 164.687 419.706 165.429 419.706C166.241 419.706 166.787 420.098 166.843 420.63H168.719C168.621 419.16 167.305 418.306 165.373 418.292C163.539 418.292 162.293 419.23 162.293 420.658C162.293 422.142 163.595 422.506 165.261 422.716C166.409 422.856 166.913 422.912 166.913 423.486C166.913 424.004 166.367 424.27 165.555 424.27C164.673 424.27 164.071 423.836 164.015 423.206H162.139ZM176.881 422.87H174.851C174.697 423.612 174.179 424.074 173.395 424.074C172.359 424.074 171.701 423.22 171.701 422.002C171.701 420.77 172.359 419.93 173.395 419.93C174.151 419.93 174.669 420.392 174.837 421.092H176.881C176.601 419.384 175.355 418.32 173.409 418.32C171.141 418.32 169.685 419.762 169.685 422.002C169.685 424.214 171.127 425.684 173.395 425.684C175.355 425.684 176.615 424.606 176.881 422.87ZM181.996 418.404C180.876 418.404 180.316 418.838 179.924 419.482L179.742 418.404H177.95V425.6H179.924V422.072C179.924 420.98 180.372 420.196 181.548 420.196H182.332V418.404H181.996ZM184.207 415.408C183.549 415.408 183.059 415.87 183.059 416.514C183.059 417.158 183.549 417.634 184.207 417.634C184.851 417.634 185.341 417.158 185.341 416.514C185.341 415.87 184.851 415.408 184.207 415.408ZM183.213 418.404V425.6H185.187V418.404H183.213ZM190.693 418.32C189.671 418.32 188.943 418.782 188.481 419.398L188.285 418.404H186.563V428.4H188.537V424.69C188.999 425.278 189.713 425.684 190.707 425.684C192.639 425.684 194.039 424.256 194.039 422.016C194.039 419.748 192.639 418.306 190.693 418.32ZM190.259 424.074C189.181 424.074 188.509 423.22 188.509 421.988C188.509 420.77 189.181 419.93 190.259 419.93C191.337 419.93 192.037 420.77 192.037 421.988C192.037 423.22 191.337 424.074 190.259 424.074ZM195.57 423.542C195.57 424.914 196.256 425.6 197.628 425.6H199.266V423.934H198.244C197.74 423.934 197.544 423.724 197.544 423.22V420.07H199.182V418.404H197.544V416.388H195.57V418.404H194.38V420.07H195.57V423.542ZM201.092 415.408C200.434 415.408 199.944 415.87 199.944 416.514C199.944 417.158 200.434 417.634 201.092 417.634C201.736 417.634 202.226 417.158 202.226 416.514C202.226 415.87 201.736 415.408 201.092 415.408ZM200.098 418.404V425.6H202.072V418.404H200.098ZM206.962 425.684C209.258 425.684 210.756 424.228 210.756 422.002C210.756 419.79 209.258 418.32 206.962 418.32C204.666 418.32 203.168 419.79 203.168 422.002C203.168 424.214 204.666 425.684 206.962 425.684ZM206.962 424.074C205.856 424.074 205.184 423.22 205.184 422.002C205.184 420.784 205.856 419.93 206.962 419.93C208.068 419.93 208.754 420.784 208.754 422.002C208.754 423.22 208.068 424.074 206.962 424.074ZM215.972 418.32C214.866 418.32 214.208 418.74 213.746 419.3L213.564 418.404H211.842V425.6H213.816V421.918C213.816 420.672 214.404 419.944 215.426 419.944C216.42 419.944 216.882 420.588 216.882 421.806V425.6H218.856V421.694C218.856 419.076 217.442 418.32 215.972 418.32Z" fill="#1D1D1D"/>
<path d="M316.562 423.794C316.436 423.794 316.338 423.766 316.254 423.738C316.842 422.912 317.164 421.862 317.164 420.7C317.164 417.844 315.19 415.716 312.306 415.716C309.422 415.716 307.448 417.844 307.448 420.7C307.448 423.556 309.422 425.684 312.306 425.684C313.328 425.684 314.252 425.418 314.994 424.942C315.33 425.362 315.68 425.6 316.52 425.6H317.528V423.794H316.562ZM309.59 420.7C309.59 418.852 310.654 417.494 312.306 417.494C313.944 417.494 315.008 418.852 315.008 420.7C315.008 421.19 314.938 421.652 314.784 422.058L314.56 421.778C314.224 421.358 313.944 421.064 313.118 421.064H312.054V422.842H312.964C313.272 422.842 313.454 422.996 313.664 423.276L313.804 423.444C313.384 423.738 312.88 423.906 312.306 423.906C310.654 423.906 309.59 422.548 309.59 420.7ZM318.839 423.542C318.839 424.914 319.525 425.6 320.897 425.6H322.535V423.934H321.513C321.009 423.934 320.813 423.724 320.813 423.22V420.07H322.451V418.404H320.813V416.388H318.839V418.404H317.649V420.07H318.839V423.542ZM322.668 418.404L325.44 425.642L325.258 426.118C325.062 426.608 324.894 426.734 324.39 426.734H323.298V428.4H325.216C326.336 428.4 326.7 427.812 327.148 426.622L330.34 418.404H328.226L326.518 423.57L324.768 418.404H322.668Z" fill="#1D1D1D"/>
<path d="M375.84 415.8V425.6H377.94V422.31H379.83C381.958 422.31 383.372 421.036 383.372 419.062C383.372 417.074 381.958 415.8 379.83 415.8H375.84ZM377.94 417.55H379.634C380.614 417.55 381.244 418.124 381.244 419.062C381.244 419.986 380.614 420.56 379.634 420.56H377.94V417.55ZM388.441 418.404C387.321 418.404 386.761 418.838 386.369 419.482L386.187 418.404H384.395V425.6H386.369V422.072C386.369 420.98 386.817 420.196 387.993 420.196H388.777V418.404H388.441ZM390.653 415.408C389.995 415.408 389.505 415.87 389.505 416.514C389.505 417.158 389.995 417.634 390.653 417.634C391.297 417.634 391.787 417.158 391.787 416.514C391.787 415.87 391.297 415.408 390.653 415.408ZM389.659 418.404V425.6H391.633V418.404H389.659ZM399.924 422.87H397.894C397.74 423.612 397.222 424.074 396.438 424.074C395.402 424.074 394.744 423.22 394.744 422.002C394.744 420.77 395.402 419.93 396.438 419.93C397.194 419.93 397.712 420.392 397.88 421.092H399.924C399.644 419.384 398.398 418.32 396.452 418.32C394.184 418.32 392.728 419.762 392.728 422.002C392.728 424.214 394.17 425.684 396.438 425.684C398.398 425.684 399.658 424.606 399.924 422.87ZM400.617 422.016C400.617 424.242 402.073 425.684 404.509 425.684C406.399 425.684 407.617 424.564 407.841 423.164H405.895C405.727 423.836 405.167 424.186 404.369 424.186C403.347 424.186 402.759 423.542 402.675 422.506V422.45H407.897C407.939 422.226 407.953 421.988 407.953 421.778C407.925 419.664 406.427 418.32 404.243 418.32C402.073 418.32 400.617 419.762 400.617 422.016ZM402.717 421.162C402.829 420.308 403.473 419.79 404.327 419.79C405.223 419.79 405.839 420.28 405.979 421.162H402.717Z" fill="#1D1D1D"/>
<path d="M462.108 415.8V417.606H464.936V425.6H467.036V417.606H469.864V415.8H462.108ZM473.109 425.684C475.405 425.684 476.903 424.228 476.903 422.002C476.903 419.79 475.405 418.32 473.109 418.32C470.813 418.32 469.315 419.79 469.315 422.002C469.315 424.214 470.813 425.684 473.109 425.684ZM473.109 424.074C472.003 424.074 471.331 423.22 471.331 422.002C471.331 420.784 472.003 419.93 473.109 419.93C474.215 419.93 474.901 420.784 474.901 422.002C474.901 423.22 474.215 424.074 473.109 424.074ZM478.424 423.542C478.424 424.914 479.11 425.6 480.482 425.6H482.12V423.934H481.098C480.594 423.934 480.398 423.724 480.398 423.22V420.07H482.036V418.404H480.398V416.388H478.424V418.404H477.234V420.07H478.424V423.542ZM489.772 423.934C489.478 423.934 489.31 423.836 489.31 423.472V420.938C489.31 419.216 488.134 418.32 486.118 418.32C484.2 418.32 482.94 419.146 482.8 420.644H484.704C484.788 420.112 485.292 419.762 486.02 419.762C486.846 419.762 487.364 420.182 487.364 420.826V421.176H485.936C483.78 421.176 482.632 422.044 482.632 423.57C482.632 424.942 483.752 425.684 485.306 425.684C486.426 425.684 487.154 425.222 487.658 424.424C487.644 425.11 487.966 425.6 488.988 425.6H489.996V423.934H489.772ZM487.364 422.632C487.35 423.612 486.72 424.256 485.684 424.256C485.026 424.256 484.62 423.934 484.62 423.43C484.62 422.828 485.11 422.492 485.922 422.492H487.364V422.632ZM490.759 415.8V425.6H492.733V415.8H490.759Z" fill="#1D1D1D"/>
<path d="M457.501 489.914C456.988 489.904 456.488 489.862 456.003 489.788C455.518 489.704 455.126 489.592 454.827 489.452V488.262C455.144 488.411 455.55 488.542 456.045 488.654C456.54 488.766 457.025 488.826 457.501 488.836V486.008C456.577 485.756 455.9 485.438 455.471 485.056C455.042 484.673 454.827 484.15 454.827 483.488C454.827 482.797 455.065 482.256 455.541 481.864C456.026 481.472 456.68 481.252 457.501 481.206V479.974H458.397V481.192C458.892 481.201 459.34 481.257 459.741 481.36C460.152 481.453 460.525 481.57 460.861 481.71L460.483 482.746C460.184 482.624 459.853 482.522 459.489 482.438C459.134 482.344 458.77 482.284 458.397 482.256V485.07C459.013 485.247 459.526 485.438 459.937 485.644C460.348 485.84 460.656 486.087 460.861 486.386C461.076 486.675 461.183 487.053 461.183 487.52C461.183 488.173 460.94 488.705 460.455 489.116C459.97 489.517 459.284 489.764 458.397 489.858V491.412H457.501V489.914ZM457.501 482.284C456.997 482.321 456.624 482.438 456.381 482.634C456.148 482.83 456.031 483.082 456.031 483.39C456.031 483.763 456.134 484.052 456.339 484.258C456.554 484.454 456.941 484.622 457.501 484.762V482.284ZM458.397 488.766C458.948 488.71 459.349 488.584 459.601 488.388C459.853 488.182 459.979 487.921 459.979 487.604C459.979 487.249 459.867 486.983 459.643 486.806C459.419 486.619 459.004 486.451 458.397 486.302V488.766ZM464.323 480.8V481.976C464.323 482.452 464.099 482.816 463.637 482.816H462.041V483.866H463.623C463.931 483.866 464.155 483.81 464.295 483.684V490.6H465.471V480.8H464.323ZM467.168 485.924C467.168 488.85 468.68 490.684 470.892 490.684C473.09 490.684 474.602 488.85 474.602 485.924V485.476C474.602 482.69 473.09 480.716 470.892 480.716C468.68 480.716 467.168 482.69 467.168 485.476V485.924ZM473.412 485.518V485.882C473.412 488.206 472.404 489.606 470.892 489.606C469.366 489.606 468.358 488.206 468.358 485.882V485.518C468.358 483.194 469.366 481.794 470.892 481.794C472.404 481.794 473.412 483.194 473.412 485.518ZM475.865 489.13C475.277 489.13 474.941 489.48 474.941 489.942C474.941 490.446 475.263 490.698 475.683 490.698C475.851 490.698 476.047 490.642 476.159 490.53C476.173 490.586 476.173 490.642 476.173 490.712C476.173 491.188 475.893 491.818 474.997 491.832V492.49C476.229 492.462 476.971 491.748 476.971 490.558C476.971 489.788 476.551 489.13 475.865 489.13ZM477.408 485.924C477.408 488.85 478.92 490.684 481.132 490.684C483.33 490.684 484.842 488.85 484.842 485.924V485.476C484.842 482.69 483.33 480.716 481.132 480.716C478.92 480.716 477.408 482.69 477.408 485.476V485.924ZM483.652 485.518V485.882C483.652 488.206 482.644 489.606 481.132 489.606C479.606 489.606 478.598 488.206 478.598 485.882V485.518C478.598 483.194 479.606 481.794 481.132 481.794C482.644 481.794 483.652 483.194 483.652 485.518ZM486.158 485.924C486.158 488.85 487.67 490.684 489.882 490.684C492.08 490.684 493.592 488.85 493.592 485.924V485.476C493.592 482.69 492.08 480.716 489.882 480.716C487.67 480.716 486.158 482.69 486.158 485.476V485.924ZM492.402 485.518V485.882C492.402 488.206 491.394 489.606 489.882 489.606C488.356 489.606 487.348 488.206 487.348 485.882V485.518C487.348 483.194 488.356 481.794 489.882 481.794C491.394 481.794 492.402 483.194 492.402 485.518ZM494.908 485.924C494.908 488.85 496.42 490.684 498.632 490.684C500.83 490.684 502.342 488.85 502.342 485.924V485.476C502.342 482.69 500.83 480.716 498.632 480.716C496.42 480.716 494.908 482.69 494.908 485.476V485.924ZM501.152 485.518V485.882C501.152 488.206 500.144 489.606 498.632 489.606C497.106 489.606 496.098 488.206 496.098 485.882V485.518C496.098 483.194 497.106 481.794 498.632 481.794C500.144 481.794 501.152 483.194 501.152 485.518Z" fill="#1D1D1D"/>
<path d="M378.542 489.914C378.029 489.904 377.529 489.862 377.044 489.788C376.559 489.704 376.167 489.592 375.868 489.452V488.262C376.185 488.411 376.591 488.542 377.086 488.654C377.581 488.766 378.066 488.826 378.542 488.836V486.008C377.618 485.756 376.941 485.438 376.512 485.056C376.083 484.673 375.868 484.15 375.868 483.488C375.868 482.797 376.106 482.256 376.582 481.864C377.067 481.472 377.721 481.252 378.542 481.206V479.974H379.438V481.192C379.933 481.201 380.381 481.257 380.782 481.36C381.193 481.453 381.566 481.57 381.902 481.71L381.524 482.746C381.225 482.624 380.894 482.522 380.53 482.438C380.175 482.344 379.811 482.284 379.438 482.256V485.07C380.054 485.247 380.567 485.438 380.978 485.644C381.389 485.84 381.697 486.087 381.902 486.386C382.117 486.675 382.224 487.053 382.224 487.52C382.224 488.173 381.981 488.705 381.496 489.116C381.011 489.517 380.325 489.764 379.438 489.858V491.412H378.542V489.914ZM378.542 482.284C378.038 482.321 377.665 482.438 377.422 482.634C377.189 482.83 377.072 483.082 377.072 483.39C377.072 483.763 377.175 484.052 377.38 484.258C377.595 484.454 377.982 484.622 378.542 484.762V482.284ZM379.438 488.766C379.989 488.71 380.39 488.584 380.642 488.388C380.894 488.182 381.02 487.921 381.02 487.604C381.02 487.249 380.908 486.983 380.684 486.806C380.46 486.619 380.045 486.451 379.438 486.302V488.766ZM383.558 489.606V490.6H390.306V489.522H385.182L388.122 487.03C389.284 486.036 390.236 485.112 390.236 483.642C390.236 481.878 389.004 480.702 386.89 480.702C384.916 480.702 383.614 482.018 383.614 483.866V484.118H384.79V483.936C384.79 482.592 385.63 481.752 386.89 481.752C388.192 481.752 389.032 482.466 389.032 483.698C389.032 484.762 388.276 485.518 387.366 486.302L383.558 489.606ZM391.586 485.924C391.586 488.85 393.098 490.684 395.31 490.684C397.508 490.684 399.02 488.85 399.02 485.924V485.476C399.02 482.69 397.508 480.716 395.31 480.716C393.098 480.716 391.586 482.69 391.586 485.476V485.924ZM397.83 485.518V485.882C397.83 488.206 396.822 489.606 395.31 489.606C393.784 489.606 392.776 488.206 392.776 485.882V485.518C392.776 483.194 393.784 481.794 395.31 481.794C396.822 481.794 397.83 483.194 397.83 485.518ZM400.336 485.924C400.336 488.85 401.848 490.684 404.06 490.684C406.258 490.684 407.77 488.85 407.77 485.924V485.476C407.77 482.69 406.258 480.716 404.06 480.716C401.848 480.716 400.336 482.69 400.336 485.476V485.924ZM406.58 485.518V485.882C406.58 488.206 405.572 489.606 404.06 489.606C402.534 489.606 401.526 488.206 401.526 485.882V485.518C401.526 483.194 402.534 481.794 404.06 481.794C405.572 481.794 406.58 483.194 406.58 485.518Z" fill="#1D1D1D"/>
<path d="M311.48 484.034C310.724 484.034 309.702 484.272 309.072 485.098L309.296 481.878H314.042V480.8H308.218L307.896 486.372L309.03 486.4C309.45 485.238 310.654 485.07 311.256 485.07C312.614 485.07 313.468 486.008 313.468 487.338C313.468 488.85 312.39 489.62 311.242 489.62C309.856 489.62 308.988 488.682 308.876 487.548H307.7C307.798 489.256 309.058 490.67 311.242 490.67C313.076 490.67 314.672 489.494 314.672 487.324C314.672 485.378 313.342 484.034 311.48 484.034ZM315.888 485.924C315.888 488.85 317.4 490.684 319.612 490.684C321.81 490.684 323.322 488.85 323.322 485.924V485.476C323.322 482.69 321.81 480.716 319.612 480.716C317.4 480.716 315.888 482.69 315.888 485.476V485.924ZM322.132 485.518V485.882C322.132 488.206 321.124 489.606 319.612 489.606C318.086 489.606 317.078 488.206 317.078 485.882V485.518C317.078 483.194 318.086 481.794 319.612 481.794C321.124 481.794 322.132 483.194 322.132 485.518Z" fill="#1D1D1D"/>
<path d="M462.177 540.939C461.663 540.93 461.164 540.888 460.679 540.813C460.193 540.729 459.801 540.617 459.503 540.477V539.287C459.82 539.436 460.226 539.567 460.721 539.679C461.215 539.791 461.701 539.852 462.177 539.861V537.033C461.253 536.781 460.576 536.464 460.147 536.081C459.717 535.698 459.503 535.176 459.503 534.513C459.503 533.822 459.741 533.281 460.217 532.889C460.702 532.497 461.355 532.278 462.177 532.231V530.999H463.073V532.217C463.567 532.226 464.015 532.282 464.417 532.385C464.827 532.478 465.201 532.595 465.537 532.735L465.159 533.771C464.86 533.65 464.529 533.547 464.165 533.463C463.81 533.37 463.446 533.309 463.073 533.281V536.095C463.689 536.272 464.202 536.464 464.613 536.669C465.023 536.865 465.331 537.112 465.537 537.411C465.751 537.7 465.859 538.078 465.859 538.545C465.859 539.198 465.616 539.73 465.131 540.141C464.645 540.542 463.959 540.79 463.073 540.883V542.437H462.177V540.939ZM462.177 533.309C461.673 533.346 461.299 533.463 461.057 533.659C460.823 533.855 460.707 534.107 460.707 534.415C460.707 534.788 460.809 535.078 461.015 535.283C461.229 535.479 461.617 535.647 462.177 535.787V533.309ZM463.073 539.791C463.623 539.735 464.025 539.609 464.277 539.413C464.529 539.208 464.655 538.946 464.655 538.629C464.655 538.274 464.543 538.008 464.319 537.831C464.095 537.644 463.679 537.476 463.073 537.327V539.791ZM467.192 540.631V541.625H473.94V540.547H468.816L471.756 538.055C472.918 537.061 473.87 536.137 473.87 534.667C473.87 532.903 472.638 531.727 470.524 531.727C468.55 531.727 467.248 533.043 467.248 534.891V535.143H468.424V534.961C468.424 533.617 469.264 532.777 470.524 532.777C471.826 532.777 472.666 533.491 472.666 534.723C472.666 535.787 471.91 536.543 471 537.327L467.192 540.631ZM475.865 540.155C475.277 540.155 474.941 540.505 474.941 540.967C474.941 541.471 475.263 541.723 475.683 541.723C475.851 541.723 476.047 541.667 476.159 541.555C476.173 541.611 476.173 541.667 476.173 541.737C476.173 542.213 475.893 542.843 474.997 542.857V543.515C476.229 543.487 476.971 542.773 476.971 541.583C476.971 540.813 476.551 540.155 475.865 540.155ZM477.408 536.949C477.408 539.875 478.92 541.709 481.132 541.709C483.33 541.709 484.842 539.875 484.842 536.949V536.501C484.842 533.715 483.33 531.741 481.132 531.741C478.92 531.741 477.408 533.715 477.408 536.501V536.949ZM483.652 536.543V536.907C483.652 539.231 482.644 540.631 481.132 540.631C479.606 540.631 478.598 539.231 478.598 536.907V536.543C478.598 534.219 479.606 532.819 481.132 532.819C482.644 532.819 483.652 534.219 483.652 536.543ZM486.158 536.949C486.158 539.875 487.67 541.709 489.882 541.709C492.08 541.709 493.592 539.875 493.592 536.949V536.501C493.592 533.715 492.08 531.741 489.882 531.741C487.67 531.741 486.158 533.715 486.158 536.501V536.949ZM492.402 536.543V536.907C492.402 539.231 491.394 540.631 489.882 540.631C488.356 540.631 487.348 539.231 487.348 536.907V536.543C487.348 534.219 488.356 532.819 489.882 532.819C491.394 532.819 492.402 534.219 492.402 536.543ZM494.908 536.949C494.908 539.875 496.42 541.709 498.632 541.709C500.83 541.709 502.342 539.875 502.342 536.949V536.501C502.342 533.715 500.83 531.741 498.632 531.741C496.42 531.741 494.908 533.715 494.908 536.501V536.949ZM501.152 536.543V536.907C501.152 539.231 500.144 540.631 498.632 540.631C497.106 540.631 496.098 539.231 496.098 536.907V536.543C496.098 534.219 497.106 532.819 498.632 532.819C500.144 532.819 501.152 534.219 501.152 536.543Z" fill="#1D1D1D"/>
<path d="M378.542 540.939C378.029 540.93 377.529 540.888 377.044 540.813C376.559 540.729 376.167 540.617 375.868 540.477V539.287C376.185 539.436 376.591 539.567 377.086 539.679C377.581 539.791 378.066 539.852 378.542 539.861V537.033C377.618 536.781 376.941 536.464 376.512 536.081C376.083 535.698 375.868 535.176 375.868 534.513C375.868 533.822 376.106 533.281 376.582 532.889C377.067 532.497 377.721 532.278 378.542 532.231V530.999H379.438V532.217C379.933 532.226 380.381 532.282 380.782 532.385C381.193 532.478 381.566 532.595 381.902 532.735L381.524 533.771C381.225 533.65 380.894 533.547 380.53 533.463C380.175 533.37 379.811 533.309 379.438 533.281V536.095C380.054 536.272 380.567 536.464 380.978 536.669C381.389 536.865 381.697 537.112 381.902 537.411C382.117 537.7 382.224 538.078 382.224 538.545C382.224 539.198 381.981 539.73 381.496 540.141C381.011 540.542 380.325 540.79 379.438 540.883V542.437H378.542V540.939ZM378.542 533.309C378.038 533.346 377.665 533.463 377.422 533.659C377.189 533.855 377.072 534.107 377.072 534.415C377.072 534.788 377.175 535.078 377.38 535.283C377.595 535.479 377.982 535.647 378.542 535.787V533.309ZM379.438 539.791C379.989 539.735 380.39 539.609 380.642 539.413C380.894 539.208 381.02 538.946 381.02 538.629C381.02 538.274 380.908 538.008 380.684 537.831C380.46 537.644 380.045 537.476 379.438 537.327V539.791ZM385.364 531.825V533.001C385.364 533.477 385.14 533.841 384.678 533.841H383.082V534.891H384.664C384.972 534.891 385.196 534.835 385.336 534.709V541.625H386.512V531.825H385.364ZM388.209 536.949C388.209 539.875 389.721 541.709 391.933 541.709C394.131 541.709 395.643 539.875 395.643 536.949V536.501C395.643 533.715 394.131 531.741 391.933 531.741C389.721 531.741 388.209 533.715 388.209 536.501V536.949ZM394.453 536.543V536.907C394.453 539.231 393.445 540.631 391.933 540.631C390.407 540.631 389.399 539.231 389.399 536.907V536.543C389.399 534.219 390.407 532.819 391.933 532.819C393.445 532.819 394.453 534.219 394.453 536.543ZM396.959 536.949C396.959 539.875 398.471 541.709 400.683 541.709C402.881 541.709 404.393 539.875 404.393 536.949V536.501C404.393 533.715 402.881 531.741 400.683 531.741C398.471 531.741 396.959 533.715 396.959 536.501V536.949ZM403.203 536.543V536.907C403.203 539.231 402.195 540.631 400.683 540.631C399.157 540.631 398.149 539.231 398.149 536.907V536.543C398.149 534.219 399.157 532.819 400.683 532.819C402.195 532.819 403.203 534.219 403.203 536.543Z" fill="#1D1D1D"/>
<path d="M307.546 540.631V541.625H314.294V540.547H309.17L312.11 538.055C313.272 537.061 314.224 536.137 314.224 534.667C314.224 532.903 312.992 531.727 310.878 531.727C308.904 531.727 307.602 533.043 307.602 534.891V535.143H308.778V534.961C308.778 533.617 309.618 532.777 310.878 532.777C312.18 532.777 313.02 533.491 313.02 534.723C313.02 535.787 312.264 536.543 311.354 537.327L307.546 540.631ZM315.574 536.949C315.574 539.875 317.086 541.709 319.298 541.709C321.496 541.709 323.008 539.875 323.008 536.949V536.501C323.008 533.715 321.496 531.741 319.298 531.741C317.086 531.741 315.574 533.715 315.574 536.501V536.949ZM321.818 536.543V536.907C321.818 539.231 320.81 540.631 319.298 540.631C317.772 540.631 316.764 539.231 316.764 536.907V536.543C316.764 534.219 317.772 532.819 319.298 532.819C320.81 532.819 321.818 534.219 321.818 536.543Z" fill="#1D1D1D"/>
<path d="M144.154 607H145.414L146.45 604.354H150.72L151.756 607H153.058L149.334 597.2H147.892L144.154 607ZM146.814 603.248L148.578 598.53L150.356 603.248H146.814ZM161.965 599.776C160.691 599.776 159.921 600.364 159.487 601.134C159.081 600.224 158.227 599.776 157.233 599.776C156.127 599.776 155.525 600.322 155.147 600.84L154.993 599.86H153.999V607H155.147V603.234C155.147 601.806 155.861 600.826 157.037 600.826C158.129 600.826 158.759 601.554 158.759 602.954V607H159.907V603.178C159.907 601.722 160.635 600.826 161.825 600.826C162.903 600.826 163.519 601.554 163.519 602.954V607H164.667V602.884C164.667 600.63 163.449 599.776 161.965 599.776ZM169.429 607.084C171.515 607.084 172.971 605.6 172.971 603.43C172.971 601.26 171.515 599.776 169.429 599.776C167.343 599.776 165.887 601.26 165.887 603.43C165.887 605.6 167.343 607.084 169.429 607.084ZM169.429 606.062C168.015 606.062 167.063 604.956 167.063 603.43C167.063 601.904 168.015 600.798 169.429 600.798C170.843 600.798 171.795 601.904 171.795 603.43C171.795 604.956 170.843 606.062 169.429 606.062ZM179.286 599.86V603.43C179.286 605.04 178.502 606.034 177.2 606.034C176.01 606.034 175.338 605.25 175.338 603.766V599.86H174.19V603.836C174.19 606.202 175.436 607.084 177.004 607.084C178.18 607.084 178.866 606.58 179.286 606.048L179.44 607H180.434V599.86H179.286ZM185.499 599.776C184.295 599.776 183.567 600.28 183.147 600.826L182.993 599.86H181.999V607H183.147V603.43C183.147 601.82 183.959 600.826 185.303 600.826C186.549 600.826 187.235 601.61 187.235 603.094V607H188.383V603.024C188.383 600.658 187.109 599.776 185.499 599.776ZM190.323 605.138C190.323 606.398 190.812 607 192.185 607H193.501V605.95H192.255C191.681 605.95 191.471 605.726 191.471 605.124V600.91H193.277V599.86H191.471V597.858H190.323V599.86H189.034V600.91H190.323V605.138ZM203.609 597.2V600.952C203.175 600.266 202.363 599.776 201.159 599.776C199.185 599.776 197.729 601.246 197.729 603.43C197.729 605.754 199.185 607.084 201.159 607.084C202.363 607.084 203.133 606.51 203.609 605.852L203.763 607H204.757V597.2H203.609ZM201.271 606.062C199.857 606.062 198.905 604.984 198.905 603.43C198.905 601.876 199.857 600.798 201.271 600.798C202.671 600.798 203.623 601.89 203.623 603.458C203.623 604.984 202.671 606.062 201.271 606.062ZM211.319 599.86V603.43C211.319 605.04 210.535 606.034 209.233 606.034C208.043 606.034 207.371 605.25 207.371 603.766V599.86H206.223V603.836C206.223 606.202 207.469 607.084 209.037 607.084C210.213 607.084 210.899 606.58 211.319 606.048L211.473 607H212.467V599.86H211.319ZM213.78 603.43C213.78 605.614 215.18 607.084 217.322 607.084C218.974 607.084 220.15 606.034 220.43 604.606H219.268C219.03 605.53 218.246 606.062 217.238 606.062C215.908 606.062 215.026 605.138 214.984 603.752V603.654H220.528C220.542 603.486 220.556 603.318 220.556 603.164C220.5 601.05 219.128 599.776 217.168 599.776C215.152 599.776 213.78 601.232 213.78 603.43ZM215.054 602.702C215.166 601.54 216.132 600.784 217.182 600.784C218.372 600.784 219.254 601.47 219.366 602.702H215.054Z" fill="#1D1D1D"/>
<path d="M455.368 606.44C454.762 606.421 454.22 606.365 453.744 606.272C453.268 606.169 452.834 606.029 452.442 605.852V604.046C452.825 604.233 453.287 604.405 453.828 604.564C454.37 604.713 454.883 604.802 455.368 604.83V602.716C454.65 602.436 454.071 602.165 453.632 601.904C453.203 601.633 452.895 601.335 452.708 601.008C452.522 600.681 452.428 600.289 452.428 599.832C452.428 599.132 452.699 598.577 453.24 598.166C453.791 597.746 454.5 597.499 455.368 597.424V596.374H456.306V597.396C457.342 597.433 458.285 597.643 459.134 598.026L458.49 599.622C458.117 599.463 457.739 599.342 457.356 599.258C456.983 599.174 456.633 599.118 456.306 599.09V601.106C456.81 601.293 457.291 601.498 457.748 601.722C458.206 601.937 458.574 602.212 458.854 602.548C459.144 602.884 459.288 603.327 459.288 603.878C459.288 604.559 459.041 605.129 458.546 605.586C458.052 606.043 457.305 606.319 456.306 606.412V607.812H455.368V606.44ZM455.368 599.118C454.78 599.202 454.486 599.44 454.486 599.832C454.486 600.028 454.556 600.191 454.696 600.322C454.836 600.453 455.06 600.588 455.368 600.728V599.118ZM456.306 604.788C456.922 604.676 457.23 604.405 457.23 603.976C457.23 603.789 457.151 603.631 456.992 603.5C456.843 603.36 456.614 603.22 456.306 603.08V604.788ZM462.162 597.2V598.152C462.162 598.684 461.924 599.146 461.42 599.146H459.95V600.812H461.588C461.798 600.812 461.98 600.798 462.12 600.742V607H464.136V597.2H462.162ZM465.44 605.446V607H472.622V605.306H468.352L470.55 603.514C471.782 602.52 472.58 601.638 472.58 600.196C472.58 598.362 471.32 597.102 468.968 597.102C466.798 597.102 465.398 598.53 465.398 600.392V600.658H467.428V600.504C467.428 599.454 468.072 598.796 468.968 598.796C469.906 598.796 470.536 599.314 470.536 600.28C470.536 601.078 470.004 601.666 469.15 602.366L465.44 605.446ZM474.668 604.788C473.982 604.788 473.436 605.292 473.436 605.908C473.436 606.622 473.87 606.972 474.388 606.972C474.556 606.972 474.696 606.93 474.836 606.86C474.85 606.916 474.85 607 474.85 607.056C474.85 607.56 474.416 607.994 473.52 608.008V609.03C475.116 609.016 476.138 608.19 476.138 606.622C476.138 605.544 475.55 604.788 474.668 604.788ZM476.338 602.324C476.338 605.306 478.004 607.084 480.37 607.084C482.75 607.084 484.416 605.306 484.416 602.324V601.876C484.416 598.95 482.75 597.116 480.37 597.116C478.004 597.116 476.338 598.95 476.338 601.876V602.324ZM482.4 601.946V602.254C482.4 604.284 481.574 605.376 480.37 605.376C479.18 605.376 478.354 604.284 478.354 602.254V601.946C478.354 599.93 479.18 598.824 480.37 598.824C481.574 598.824 482.4 599.93 482.4 601.946ZM485.388 602.324C485.388 605.306 487.054 607.084 489.42 607.084C491.8 607.084 493.466 605.306 493.466 602.324V601.876C493.466 598.95 491.8 597.116 489.42 597.116C487.054 597.116 485.388 598.95 485.388 601.876V602.324ZM491.45 601.946V602.254C491.45 604.284 490.624 605.376 489.42 605.376C488.23 605.376 487.404 604.284 487.404 602.254V601.946C487.404 599.93 488.23 598.824 489.42 598.824C490.624 598.824 491.45 599.93 491.45 601.946ZM494.439 602.324C494.439 605.306 496.105 607.084 498.471 607.084C500.851 607.084 502.517 605.306 502.517 602.324V601.876C502.517 598.95 500.851 597.116 498.471 597.116C496.105 597.116 494.439 598.95 494.439 601.876V602.324ZM500.501 601.946V602.254C500.501 604.284 499.675 605.376 498.471 605.376C497.281 605.376 496.455 604.284 496.455 602.254V601.946C496.455 599.93 497.281 598.824 498.471 598.824C499.675 598.824 500.501 599.93 500.501 601.946Z" fill="#1D1D1D"/>
<rect x="134" y="481.6" width="85" height="8" rx="4" fill="#B4B4B4"/>
<rect x="134" y="532.625" width="85" height="8" rx="4" fill="#B4B4B4"/>
<path d="M124 571.6L536 571.6" stroke="#B4B4B4"/>
<path fill-rule="evenodd" clip-rule="evenodd" d="M496.121 159.74H500.999L502.271 165.46H521.784L518.795 178.88H504.534C504.534 178.88 504.534 178.88 504.534 178.3L504.534 178.88H504.069L500.069 160.9H496.121V159.74ZM504.999 177.72H517.865L520.337 166.62H502.529L504.999 177.72Z" fill="#1D1D1D"/>
<path fill-rule="evenodd" clip-rule="evenodd" d="M507.141 181.2C506.18 181.2 505.401 181.979 505.401 182.94C505.401 183.901 506.18 184.68 507.141 184.68C508.102 184.68 508.881 183.901 508.881 182.94C508.881 181.979 508.102 181.2 507.141 181.2ZM504.241 182.94C504.241 181.338 505.539 180.04 507.141 180.04C508.742 180.04 510.041 181.338 510.041 182.94C510.041 184.542 508.742 185.84 507.141 185.84C505.539 185.84 504.241 184.542 504.241 182.94Z" fill="#1D1D1D"/>
<path fill-rule="evenodd" clip-rule="evenodd" d="M515.841 181.2C514.88 181.2 514.101 181.979 514.101 182.94C514.101 183.901 514.88 184.68 515.841 184.68C516.802 184.68 517.581 183.901 517.581 182.94C517.581 181.979 516.802 181.2 515.841 181.2ZM512.941 182.94C512.941 181.338 514.239 180.04 515.841 180.04C517.442 180.04 518.741 181.338 518.741 182.94C518.741 184.542 517.442 185.84 515.841 185.84C514.239 185.84 512.941 184.542 512.941 182.94Z" fill="#1D1D1D"/>
<path fill-rule="evenodd" clip-rule="evenodd" d="M507.108 175.4L506.309 169.02H507.478L508.278 175.4H507.108ZM516.132 175.4L516.931 169.02H515.762L514.963 175.4H516.132ZM512.359 175.4V169.02H511.199V175.4H512.359Z" fill="black"/>
<rect x="511.961" y="156" width="24.0394" height="16.0263" rx="8.01314" fill="#1D1D1D"/>
<path d="M521.299 167.421V168.202H526.601V167.355H522.575L524.885 165.397C525.798 164.616 526.546 163.89 526.546 162.735C526.546 161.349 525.578 160.425 523.917 160.425C522.366 160.425 521.343 161.459 521.343 162.911V163.109H522.267V162.966C522.267 161.91 522.927 161.25 523.917 161.25C524.94 161.25 525.6 161.811 525.6 162.779C525.6 163.615 525.006 164.209 524.291 164.825L521.299 167.421Z" fill="white"/>
<rect x="314" y="202.69" width="85" height="8" rx="4" fill="#CCCCCC"/>
<rect x="314" y="270.5" width="169" height="8.46032" rx="4.23016" fill="#EEEEEE"/>
<rect x="314" y="289.96" width="90.0229" height="8.46032" rx="4.23016" fill="#EEEEEE"/>
<rect x="314" y="309.421" width="63.5131" height="8.46032" rx="4.23016" fill="#EEEEEE"/>
<rect x="388.513" y="309.421" width="33.6895" height="8.46032" rx="4.23016" fill="#EEEEEE"/>
<rect x="413" y="202.69" width="45" height="8" rx="4" fill="#CCCCCC"/>
<rect x="124" y="202.69" width="170" height="170" rx="9" fill="#F6F4F4"/>
<path d="M155.319 358.47H182.223V275.333H155.319V358.47Z" fill="#E5E5E5"/>
<path d="M266.87 275.338H182.219V358.475H266.87V275.338Z" fill="#CCCCCC"/>
<path d="M277.99 290.264H193.338L182.219 275.338H266.87L277.99 290.264Z" fill="#E5E5E5"/>
<path d="M144.196 290.264H171.1L182.219 275.338H155.315L144.196 290.264Z" fill="#CCCCCC"/>
<path d="M144.792 358.469H156.353V322.721H144.792V358.469Z" fill="#CCCCCC"/>
<path d="M192.748 322.728H156.355V358.476H192.748V322.728Z" fill="#E5E5E5"/>
<path d="M140.01 331.197H151.571L156.355 322.728H144.794L140.01 331.197Z" fill="#E5E5E5"/>
<path d="M156.355 322.728H192.748L197.532 314.26H161.139L156.355 322.728Z" fill="#B4B4B4"/>
<path d="M186.437 340.602H167.45V351.792H186.437V340.602Z" fill="white"/>
<path d="M165.292 275.334H184.151V229.905H165.292V275.334Z" fill="#E5E5E5"/>
<path d="M235.782 229.909H184.154V275.337H235.782V229.909Z" fill="#CCCCCC"/>
<path d="M241.852 240.675H190.224L184.154 229.909H235.782L241.852 240.675Z" fill="#E5E5E5"/>
<path d="M159.214 240.675H178.074L184.154 229.909H165.285L159.214 240.675Z" fill="#CCCCCC"/>
<path d="M251.999 252.623H229.368V275.337H251.999V252.623Z" fill="#E5E5E5"/>
<path d="M260.387 252.623H251.999V275.337H260.387V252.623Z" fill="#CCCCCC"/>
<path d="M244.268 256.596H233.365V263.024H244.268V256.596Z" fill="white"/>
<defs>
<filter id="filter0_d" x="0" y="0" width="1260" height="810" filterUnits="userSpaceOnUse" color-interpolation-filters="sRGB">
<feFlood flood-opacity="0" result="BackgroundImageFix"/>
<feColorMatrix in="SourceAlpha" type="matrix" values="0 0 0 0 0 0 0 0 0 0 0 0 0 0 0 0 0 0 127 0"/>
<feOffset dx="2" dy="2"/>
<feGaussianBlur stdDeviation="25"/>
<feColorMatrix type="matrix" values="0 0 0 0 0 0 0 0 0 0 0 0 0 0 0 0 0 0 0.1 0"/>
<feBlend mode="normal" in2="BackgroundImageFix" result="effect1_dropShadow"/>
<feBlend mode="normal" in="SourceGraphic" in2="effect1_dropShadow" result="shape"/>
</filter>
</defs>
</svg>
